<svg xmlns="http://www.w3.org/2000/svg" width="680" height="560" viewBox="0 0 680 560" font-family="-apple-system, BlinkMacSystemFont, 'Segoe UI', Roboto, sans-serif">
<defs>
<marker id="arrow" viewBox="0 0 10 10" refX="8" refY="5" markerWidth="6" markerHeight="6" orient="auto-start-reverse"><path d="M2 1L8 5L2 9" fill="none" stroke="#5F5E5A" stroke-width="1.5" stroke-linecap="round" stroke-linejoin="round"/></marker>
</defs>

<rect x="270" y="20" width="140" height="44" rx="8" fill="#F1EFE8" stroke="#5F5E5A" stroke-width="0.5"/>
<text x="340" y="42" text-anchor="middle" dominant-baseline="central" fill="#2C2C2A" font-size="14" font-weight="500">사용자</text>
<line x1="340" y1="64" x2="340" y2="88" stroke="#5F5E5A" stroke-width="1.5" marker-end="url(#arrow)"/>

<rect x="250" y="88" width="180" height="44" rx="8" fill="#EEEDFE" stroke="#534AB7" stroke-width="0.5"/>
<text x="340" y="103" text-anchor="middle" dominant-baseline="central" fill="#3C3489" font-size="14" font-weight="500">Route53</text>
<text x="340" y="120" text-anchor="middle" dominant-baseline="central" fill="#534AB7" font-size="12">DNS</text>
<line x1="340" y1="132" x2="340" y2="156" stroke="#5F5E5A" stroke-width="1.5" marker-end="url(#arrow)"/>

<rect x="250" y="156" width="180" height="44" rx="8" fill="#EEEDFE" stroke="#534AB7" stroke-width="0.5"/>
<text x="340" y="171" text-anchor="middle" dominant-baseline="central" fill="#3C3489" font-size="14" font-weight="500">ALB</text>
<text x="340" y="188" text-anchor="middle" dominant-baseline="central" fill="#534AB7" font-size="12">트래픽 분산</text>
<line x1="340" y1="200" x2="340" y2="224" stroke="#5F5E5A" stroke-width="1.5" marker-end="url(#arrow)"/>

<rect x="40" y="224" width="600" height="316" rx="20" fill="#E6F1FB" stroke="#185FA5" stroke-width="0.5"/>
<text x="64" y="248" dominant-baseline="central" fill="#0C447C" font-size="14" font-weight="500">VPC  10.250.0.0/16</text>

<rect x="66" y="272" width="270" height="110" rx="12" fill="#E1F5EE" stroke="#0F6E56" stroke-width="0.5"/>
<text x="201" y="296" text-anchor="middle" dominant-baseline="central" fill="#085041" font-size="14" font-weight="500">Public Subnet 2a</text>
<text x="201" y="316" text-anchor="middle" dominant-baseline="central" fill="#0F6E56" font-size="12">Bastion · ALB · NAT</text>

<rect x="344" y="272" width="270" height="110" rx="12" fill="#E1F5EE" stroke="#0F6E56" stroke-width="0.5"/>
<text x="479" y="296" text-anchor="middle" dominant-baseline="central" fill="#085041" font-size="14" font-weight="500">Public Subnet 2c</text>
<text x="479" y="316" text-anchor="middle" dominant-baseline="central" fill="#0F6E56" font-size="12">ALB</text>

<line x1="201" y1="382" x2="201" y2="418" stroke="#5F5E5A" stroke-width="1.5" marker-end="url(#arrow)"/>
<line x1="479" y1="382" x2="479" y2="418" stroke="#5F5E5A" stroke-width="1.5" marker-end="url(#arrow)"/>

<rect x="66" y="418" width="270" height="110" rx="12" fill="#FAEEDA" stroke="#854F0B" stroke-width="0.5"/>
<text x="201" y="442" text-anchor="middle" dominant-baseline="central" fill="#633806" font-size="14" font-weight="500">Private Subnet 2a</text>
<text x="201" y="462" text-anchor="middle" dominant-baseline="central" fill="#854F0B" font-size="12">App · RDS</text>

<rect x="344" y="418" width="270" height="110" rx="12" fill="#FAEEDA" stroke="#854F0B" stroke-width="0.5"/>
<text x="479" y="442" text-anchor="middle" dominant-baseline="central" fill="#633806" font-size="14" font-weight="500">Private Subnet 2c</text>
<text x="479" y="462" text-anchor="middle" dominant-baseline="central" fill="#854F0B" font-size="12">App · RDS</text>
</svg>
